<svg width="87" height="87" viewBox="0 0 87 87" fill="none" xmlns="http://www.w3.org/2000/svg">
<g clip-path="url(#clip0_1384_2703)">
<path d="M43.5 87C67.5244 87 87 67.5244 87 43.5C87 19.4756 67.5244 0 43.5 0C19.4756 0 0 19.4756 0 43.5C0 67.5244 19.4756 87 43.5 87Z" fill="#32BA7C"/>
<path d="M32.3848 63.1232L54.7523 85.4907C73.2775 80.5507 86.9999 63.6721 86.9999 43.5002C86.9999 43.0885 86.9999 42.6769 86.9999 42.2652L69.4352 26.0728L32.3848 63.1232Z" fill="#0AA06E"/>
<path d="M44.5979 53.2428C46.5191 55.164 46.5191 58.4573 44.5979 60.3785L40.6185 64.358C38.6973 66.2791 35.4039 66.2791 33.4828 64.358L16.0554 46.7933C14.1342 44.8722 14.1342 41.5788 16.0554 39.6577L20.0349 35.6782C21.956 33.757 25.2494 33.757 27.1705 35.6782L44.5979 53.2428Z" fill="white"/>
<path d="M59.8298 22.9164C61.751 20.9953 65.0443 20.9953 66.9655 22.9164L70.945 26.8959C72.8661 28.8171 72.8661 32.1104 70.945 34.0316L40.7557 64.0836C38.8346 66.0048 35.5412 66.0048 33.6201 64.0836L29.6406 60.1041C27.7194 58.183 27.7194 54.8896 29.6406 52.9685L59.8298 22.9164Z" fill="white"/>
</g>
<defs>
<clipPath id="clip0_1384_2703">
<rect width="87" height="87" fill="white"/>
</clipPath>
</defs>
</svg>
