<svg width="85" height="86" viewBox="0 0 85 86" fill="none" xmlns="http://www.w3.org/2000/svg">
<path d="M83.5 43C83.5 65.9364 65.1272 84.5 42.5 84.5C19.8728 84.5 1.5 65.9364 1.5 43C1.5 20.0636 19.8728 1.5 42.5 1.5C65.1272 1.5 83.5 20.0636 83.5 43Z" fill="#1779C9" stroke="#1779C9" stroke-width="3"/>
<path d="M42.1795 41.6767C45.1575 41.6767 47.7359 40.6086 49.8432 38.5013C51.9498 36.3943 53.0182 33.8163 53.0182 30.838C53.0182 27.8607 51.9501 25.2824 49.8428 23.1747C47.7355 21.0681 45.1572 20 42.1795 20C39.2012 20 36.6232 21.0681 34.5162 23.175C32.4092 25.282 31.3408 27.8604 31.3408 30.838C31.3408 33.8163 32.4092 36.3947 34.5162 38.5016C36.6239 40.6083 39.2022 41.6767 42.1795 41.6767V41.6767ZM36.3811 25.0396C37.9978 23.4229 39.8944 22.6371 42.1795 22.6371C44.4643 22.6371 46.3612 23.4229 47.9782 25.0396C49.5949 26.6567 50.3812 28.5535 50.3812 30.838C50.3812 33.1231 49.5949 35.0197 47.9782 36.6367C46.3612 38.2537 44.4643 39.0396 42.1795 39.0396C39.8951 39.0396 37.9985 38.2534 36.3811 36.6367C34.7641 35.02 33.9779 33.1231 33.9779 30.838C33.9779 28.5535 34.7641 26.6567 36.3811 25.0396Z" fill="white"/>
<path d="M61.1441 54.6028C61.0834 53.726 60.9605 52.7695 60.7795 51.7594C60.5969 50.7418 60.3617 49.7798 60.0802 48.9006C59.789 47.9918 59.3939 47.0944 58.9046 46.2343C58.3976 45.3417 57.8016 44.5644 57.1328 43.9248C56.4334 43.2557 55.5772 42.7177 54.587 42.3253C53.6003 41.9349 52.5068 41.7372 51.3371 41.7372C50.8778 41.7372 50.4335 41.9256 49.5755 42.4842C49.0475 42.8286 48.4299 43.2268 47.7405 43.6673C47.151 44.0429 46.3524 44.3948 45.3661 44.7134C44.4037 45.0248 43.4266 45.1827 42.4619 45.1827C41.4978 45.1827 40.5207 45.0248 39.5577 44.7134C38.5724 44.3952 37.7735 44.0433 37.185 43.6677C36.5022 43.2313 35.8842 42.833 35.3482 42.4839C34.491 41.9253 34.0467 41.7368 33.5873 41.7368C32.4173 41.7368 31.3242 41.9349 30.3378 42.3256C29.3483 42.7173 28.4917 43.2553 27.7917 43.9252C27.1229 44.5651 26.5269 45.342 26.0202 46.2343C25.5316 47.0944 25.1361 47.9915 24.845 48.9009C24.5638 49.7802 24.3286 50.7418 24.146 51.7594C23.9647 52.7681 23.8421 53.7249 23.7814 54.6038C23.7216 55.4632 23.6914 56.3575 23.6914 57.2612C23.6914 59.6102 24.4381 61.5118 25.9106 62.9143C27.365 64.2982 29.2889 65 31.6294 65H53.2972C55.6369 65 57.5609 64.2982 59.0155 62.9143C60.4884 61.5129 61.2351 59.6105 61.2351 57.2608C61.2348 56.3541 61.2042 55.4597 61.1441 54.6028ZM57.1973 61.0037C56.2363 61.9183 54.9606 62.3629 53.2968 62.3629H31.6294C29.9653 62.3629 28.6895 61.9183 27.7289 61.0041C26.7865 60.107 26.3285 58.8823 26.3285 57.2612C26.3285 56.418 26.3563 55.5854 26.4119 54.7861C26.4661 54.002 26.577 53.1406 26.7415 52.2253C26.9039 51.3213 27.1106 50.473 27.3564 49.705C27.5922 48.9686 27.9139 48.2393 28.3129 47.5369C28.6936 46.8674 29.1317 46.293 29.6151 45.8302C30.0673 45.3973 30.6372 45.043 31.3087 44.7773C31.9298 44.5315 32.6278 44.3969 33.3855 44.3766C33.4778 44.4257 33.6423 44.5194 33.9087 44.6932C34.4508 45.0464 35.0756 45.4495 35.7664 45.8907C36.5451 46.3871 37.5483 46.8355 38.7468 47.2224C39.9721 47.6186 41.2218 47.8198 42.4622 47.8198C43.7027 47.8198 44.9527 47.6186 46.1773 47.2228C47.3769 46.8351 48.3797 46.3871 49.1594 45.89C49.8663 45.4382 50.4737 45.0468 51.0158 44.6932C51.2822 44.5198 51.4466 44.4257 51.539 44.3766C52.2971 44.3969 52.995 44.5315 53.6164 44.7773C54.2876 45.043 54.8576 45.3977 55.3097 45.8302C55.7931 46.2927 56.2312 46.8671 56.6119 47.5372C57.0112 48.2393 57.3333 48.9689 57.5688 49.7046C57.8149 50.4737 58.022 51.3217 58.184 52.225C58.3481 53.142 58.4594 54.0037 58.5136 54.7865V54.7872C58.5696 55.5833 58.5977 56.4156 58.5981 57.2612C58.5977 58.8827 58.1397 60.107 57.1973 61.0037Z" fill="white"/>
<g clip-path="url(#clip0_1384_3105)">
<rect width="14" height="14" transform="translate(37 68)" fill="#1779C9"/>
<path d="M42.3609 80.23C42.2272 80.3644 42.0449 80.4394 41.8555 80.4394C41.6661 80.4394 41.4838 80.3644 41.3501 80.23L37.3141 76.1933C36.8953 75.7745 36.8953 75.0953 37.3141 74.6772L37.8195 74.1717C38.2385 73.7529 38.9169 73.7529 39.3357 74.1717L41.8555 76.6916L48.6642 69.8827C49.0832 69.4639 49.7623 69.4639 50.1805 69.8827L50.6858 70.3882C51.1047 70.8071 51.1047 71.4861 50.6858 71.9043L42.3609 80.23Z" fill="white"/>
</g>
<defs>
<clipPath id="clip0_1384_3105">
<rect width="14" height="14" fill="white" transform="translate(37 68)"/>
</clipPath>
</defs>
</svg>
