<svg width="85" height="86" viewBox="0 0 85 86" fill="none" xmlns="http://www.w3.org/2000/svg">
<path d="M83.5 43C83.5 65.9364 65.1272 84.5 42.5 84.5C19.8728 84.5 1.5 65.9364 1.5 43C1.5 20.0636 19.8728 1.5 42.5 1.5C65.1272 1.5 83.5 20.0636 83.5 43Z" stroke="#1779C9" stroke-width="3"/>
<path d="M42.1794 41.6767C45.1574 41.6767 47.7357 40.6086 49.843 38.5013C51.9497 36.3943 53.0181 33.8163 53.0181 30.838C53.0181 27.8607 51.95 25.2824 49.8427 23.1747C47.7354 21.0681 45.157 20 42.1794 20C39.2011 20 36.6231 21.0681 34.5161 23.175C32.4091 25.282 31.3407 27.8604 31.3407 30.838C31.3407 33.8163 32.4091 36.3947 34.5161 38.5016C36.6237 40.6083 39.2021 41.6767 42.1794 41.6767ZM36.381 25.0396C37.9977 23.4229 39.8942 22.6371 42.1794 22.6371C44.4642 22.6371 46.3611 23.4229 47.9781 25.0396C49.5948 26.6567 50.381 28.5535 50.381 30.838C50.381 33.1231 49.5948 35.0197 47.9781 36.6367C46.3611 38.2537 44.4642 39.0396 42.1794 39.0396C39.8949 39.0396 37.9984 38.2534 36.381 36.6367C34.764 35.02 33.9778 33.1231 33.9778 30.838C33.9778 28.5535 34.764 26.6567 36.381 25.0396Z" fill="#1779C9"/>
<path d="M61.1441 54.6027C61.0834 53.7258 60.9605 52.7694 60.7795 51.7593C60.5969 50.7417 60.3617 49.7797 60.0802 48.9005C59.789 47.9917 59.3939 47.0942 58.9046 46.2342C58.3976 45.3416 57.8016 44.5643 57.1328 43.9247C56.4334 43.2556 55.5772 42.7176 54.587 42.3251C53.6003 41.9348 52.5068 41.737 51.3371 41.737C50.8778 41.737 50.4335 41.9255 49.5755 42.4841C49.0475 42.8285 48.4299 43.2267 47.7405 43.6672C47.151 44.0428 46.3524 44.3947 45.3661 44.7133C44.4037 45.0247 43.4266 45.1826 42.4619 45.1826C41.4978 45.1826 40.5207 45.0247 39.5577 44.7133C38.5724 44.395 37.7735 44.0431 37.185 43.6675C36.5022 43.2312 35.8842 42.8329 35.3482 42.4838C34.491 41.9252 34.0467 41.7367 33.5873 41.7367C32.4173 41.7367 31.3242 41.9348 30.3378 42.3255C29.3483 42.7172 28.4917 43.2552 27.7917 43.925C27.1229 44.565 26.5269 45.3419 26.0202 46.2342C25.5316 47.0942 25.1361 47.9913 24.845 48.9008C24.5638 49.78 24.3286 50.7417 24.146 51.7593C23.9647 52.768 23.8421 53.7248 23.7814 54.6037C23.7216 55.4631 23.6914 56.3574 23.6914 57.261C23.6914 59.61 24.4381 61.5117 25.9106 62.9142C27.365 64.2981 29.2889 64.9999 31.6294 64.9999H53.2972C55.6369 64.9999 57.5609 64.2981 59.0155 62.9142C60.4884 61.5127 61.2351 59.6104 61.2351 57.2607C61.2348 56.354 61.2042 55.4596 61.1441 54.6027ZM57.1973 61.0036C56.2363 61.9182 54.9606 62.3628 53.2968 62.3628H31.6294C29.9653 62.3628 28.6895 61.9182 27.7289 61.0039C26.7865 60.1068 26.3285 58.8822 26.3285 57.261C26.3285 56.4178 26.3563 55.5853 26.4119 54.786C26.4661 54.0019 26.577 53.1405 26.7415 52.2252C26.9039 51.3212 27.1106 50.4729 27.3564 49.7049C27.5922 48.9684 27.9139 48.2392 28.3129 47.5368C28.6936 46.8673 29.1317 46.2929 29.6151 45.8301C30.0673 45.3972 30.6372 45.0429 31.3087 44.7772C31.9298 44.5313 32.6278 44.3968 33.3855 44.3765C33.4778 44.4256 33.6423 44.5193 33.9087 44.693C34.4508 45.0463 35.0756 45.4494 35.7664 45.8905C36.5451 46.387 37.5483 46.8354 38.7468 47.2223C39.9721 47.6185 41.2218 47.8197 42.4622 47.8197C43.7027 47.8197 44.9527 47.6185 46.1773 47.2226C47.3769 46.835 48.3797 46.387 49.1594 45.8899C49.8663 45.438 50.4737 45.0467 51.0158 44.693C51.2822 44.5197 51.4466 44.4256 51.539 44.3765C52.2971 44.3968 52.995 44.5313 53.6164 44.7772C54.2876 45.0429 54.8576 45.3975 55.3097 45.8301C55.7931 46.2926 56.2312 46.867 56.6119 47.5371C57.0112 48.2392 57.3333 48.9688 57.5688 49.7045C57.8149 50.4736 58.022 51.3216 58.184 52.2248C58.3481 53.1419 58.4594 54.0036 58.5136 54.7864V54.7871C58.5696 55.5832 58.5977 56.4154 58.5981 57.261C58.5977 58.8825 58.1397 60.1068 57.1973 61.0036Z" fill="#1779C9"/>
</svg>
